HIERARCHY
ROOT hip
{
  OFFSET 0.0 0.0 0.0
  CHANNELS 6 Xposition Yposition Zposition Zrotation Yrotation Xrotation
  JOINT abdomen
  {
    OFFSET 0.0 20.6881 -0.73152
    CHANNELS 3 Zrotation Xrotation Yrotation
    JOINT chest
    {
      OFFSET 0.0 11.7043 -0.48768
      CHANNELS 3 Zrotation Xrotation Yrotation
      JOINT neck
      {
        OFFSET 0.0 22.1894 -2.19456
        CHANNELS 3 Zrotation Xrotation Yrotation
        JOINT head
        {
          OFFSET -0.24384 7.07133 1.2192
          CHANNELS 3 Zrotation Xrotation Yrotation
          JOINT leftEye
          {
            OFFSET 4.14528 8.04674 8.04672
            CHANNELS 3 Zrotation Xrotation Yrotation
            End Site
            {
              OFFSET 1.0 0.0 0.0
            }
          }
          JOINT rightEye
          {
            OFFSET -3.6576 8.04674 8.04672
            CHANNELS 3 Zrotation Xrotation Yrotation
            End Site
            {
              OFFSET 1.0 0.0 0.0
            }
          }
        }
      }
      JOINT rCollar
      {
        OFFSET -2.68224 19.2634 -4.8768
        CHANNELS 3 Zrotation Xrotation Yrotation
        JOINT rShldr
        {
          OFFSET -8.77824 -1.95073 1.46304
          CHANNELS 3 Zrotation Xrotation Yrotation
          JOINT rForeArm
          {
            OFFSET -28.1742 -1.7115 0.48768
            CHANNELS 3 Zrotation Xrotation Yrotation
            JOINT rHand
            {
              OFFSET -22.5879 0.773209 7.07136
              CHANNELS 3 Zrotation Xrotation Yrotation
              JOINT rThumb1
              {
                OFFSET -1.2192 -0.487915 3.41376
                CHANNELS 3 Zrotation Xrotation Yrotation
                JOINT rThumb2
                {
                  OFFSET -3.37035 -0.52449 3.41376
                  CHANNELS 3 Zrotation Xrotation Yrotation
                  End Site
                  {
                    OFFSET -1.78271 -1.18214 1.43049
                  }
                }
              }
              JOINT rIndex1
              {
                OFFSET -7.75947 0.938293 5.60832
                CHANNELS 3 Zrotation Xrotation Yrotation
                JOINT rIndex2
                {
                  OFFSET -2.54057 -0.884171 1.56538
                  CHANNELS 3 Zrotation Xrotation Yrotation
                  End Site
                  {
                    OFFSET -1.62519 -0.234802 1.16502
                  }
                }
              }
              JOINT rMid1
              {
                OFFSET -8.24714 1.18213 3.41376
                CHANNELS 3 Zrotation Xrotation Yrotation
                JOINT rMid2
                {
                  OFFSET -3.10165 -0.590103 1.0647
                  CHANNELS 3 Zrotation Xrotation Yrotation
                  End Site
                  {
                    OFFSET -2.48547 -0.328903 0.83742
                  }
                }
              }
              JOINT rRing1
              {
                OFFSET -8.82822 0.546677 1.51678
                CHANNELS 3 Zrotation Xrotation Yrotation
                JOINT rRing2
                {
                  OFFSET -2.60934 -0.819778 -0.0198488
                  CHANNELS 3 Zrotation Xrotation Yrotation
                  End Site
                  {
                    OFFSET -2.33842 -0.294052 0.168128
                  }
                }
              }
              JOINT rPinky1
              {
                OFFSET -8.27202 -0.0477905 -0.4584
                CHANNELS 3 Zrotation Xrotation Yrotation
                JOINT rPinky2
                {
                  OFFSET -1.82734 -0.647385 -0.700984
                  CHANNELS 3 Zrotation Xrotation Yrotation
                  End Site
                  {
                    OFFSET -1.69225 -0.51767 -0.607171
                  }
                }
              }
            }
          }
        }
      }
      JOINT lCollar
      {
        OFFSET 2.68224 19.2634 -4.8768
        CHANNELS 3 Zrotation Xrotation Yrotation
        JOINT lShldr
        {
          OFFSET 8.77824 -1.95073 1.46304
          CHANNELS 3 Zrotation Xrotation Yrotation
          JOINT lForeArm
          {
            OFFSET 28.1742 -1.7115 0.48768
            CHANNELS 3 Zrotation Xrotation Yrotation
            JOINT lHand
            {
              OFFSET 22.5879 0.773209 7.07136
              CHANNELS 3 Zrotation Xrotation Yrotation
              JOINT lThumb1
              {
                OFFSET 1.2192 -0.487915 3.41376
                CHANNELS 3 Zrotation Xrotation Yrotation
                JOINT lThumb2
                {
                  OFFSET 3.37035 -0.52449 3.41376
                  CHANNELS 3 Zrotation Xrotation Yrotation
                  End Site
                  {
                    OFFSET 1.78271 -1.18214 1.43049
                  }
                }
              }
              JOINT lIndex1
              {
                OFFSET 7.75947 0.938293 5.60832
                CHANNELS 3 Zrotation Xrotation Yrotation
                JOINT lIndex2
                {
                  OFFSET 2.54057 -0.884171 1.56538
                  CHANNELS 3 Zrotation Xrotation Yrotation
                  End Site
                  {
                    OFFSET 1.62519 -0.234802 1.16502
                  }
                }
              }
              JOINT lMid1
              {
                OFFSET 8.24714 1.18213 3.41376
                CHANNELS 3 Zrotation Xrotation Yrotation
                JOINT lMid2
                {
                  OFFSET 3.10165 -0.590103 1.0647
                  CHANNELS 3 Zrotation Xrotation Yrotation
                  End Site
                  {
                    OFFSET 2.48547 -0.328903 0.83742
                  }
                }
              }
              JOINT lRing1
              {
                OFFSET 8.82822 0.546677 1.51678
                CHANNELS 3 Zrotation Xrotation Yrotation
                JOINT lRing2
                {
                  OFFSET 2.60934 -0.819778 -0.0198488
                  CHANNELS 3 Zrotation Xrotation Yrotation
                  End Site
                  {
                    OFFSET 2.33842 -0.294052 0.168128
                  }
                }
              }
              JOINT lPinky1
              {
                OFFSET 8.27202 -0.0477905 -0.4584
                CHANNELS 3 Zrotation Xrotation Yrotation
                JOINT lPinky2
                {
                  OFFSET 1.82734 -0.647385 -0.700984
                  CHANNELS 3 Zrotation Xrotation Yrotation
                  End Site
                  {
                    OFFSET 1.69225 -0.51767 -0.607171
                  }
                }
              }
            }
          }
        }
      }
    }
  }
  JOINT rButtock
  {
    OFFSET -8.77824 4.35084 1.2192
    CHANNELS 3 Zrotation Xrotation Yrotation
    JOINT rThigh
    {
      OFFSET 0.0 -1.70687 -2.19456
      CHANNELS 3 Zrotation Xrotation Yrotation
      JOINT rShin
      {
        OFFSET 0.0 -36.8199 0.73152
        CHANNELS 3 Zrotation Xrotation Yrotation
        JOINT rFoot
        {
          OFFSET 0.73152 -45.1104 -5.12064
          CHANNELS 3 Zrotation Xrotation Yrotation
          End Site
          {
            OFFSET -1.1221 -3.69964 12.103
          }
        }
      }
    }
  }
  JOINT lButtock
  {
    OFFSET 8.77824 4.35084 1.2192
    CHANNELS 3 Zrotation Xrotation Yrotation
    JOINT lThigh
    {
      OFFSET 0.0 -1.70687 -2.19456
      CHANNELS 3 Zrotation Xrotation Yrotation
      JOINT lShin
      {
        OFFSET 0.0 -36.8199 0.73152
        CHANNELS 3 Zrotation Xrotation Yrotation
        JOINT lFoot
        {
          OFFSET -0.73152 -45.1104 -5.12064
          CHANNELS 3 Zrotation Xrotation Yrotation
          End Site
          {
            OFFSET 1.1221 -3.69964 12.103
          }
        }
      }
    }
  }
}
MOTION
Frames: 4
Frame Time: 0.00833333
-38.753000000000014 85.8458 -2.9635999999999996 -487.425 -82.0582 502.494 0.0651989 26.5818 2.50383 -4.77927 -3.30599 0.311622 3.62831 22.4752 0.835333 4.80915 -60.2852 4.14396 -0.0 0.0 0.0 -0.0 0.0 0.0 -3.89937e-14 8.18636e-13 3.41444e-14 83.5211 26.6329 1.89551 -14.4267 -7.30402 26.4165 -0.00608026 2.2205 0.31223 7.93203e-10 -3.68406e-10 -2.11772e-09 1.36148e-09 -6.35668e-10 -3.66424e-09 7.93209e-10 -3.68405e-10 -2.11773e-09 7.73091 5.47488 0.417314 7.93204e-10 -3.68404e-10 -2.11772e-09 2.90554 0.965183 0.102902 7.93211e-10 -3.68404e-10 -2.11772e-09 10.2786 0.731801 0.0259123 7.93198e-10 -3.68404e-10 -2.11772e-09 2.22167 -0.733487 -0.20892 -3.89293e-14 8.18627e-13 3.38866e-14 -81.0488 15.1996 7.89691 10.948 -4.73761 -19.592 0.357456 -16.7599 2.42576 1.43014e-09 2.31635e-10 3.66716e-09 2.434e-09 4.08803e-10 6.35332e-09 1.43014e-09 2.3163e-10 3.66717e-09 -7.73091 5.47488 -0.417314 1.43014e-09 2.31637e-10 3.66716e-09 -2.90554 0.965183 -0.102902 1.43013e-09 2.31628e-10 3.66715e-09 -10.2786 0.731801 -0.0259123 1.43015e-09 2.31638e-10 3.66714e-09 -2.22167 -0.733487 0.20892 -2.03217e-16 0.0 -3.88251e-19 5.52443 -8.50829 0.917205 -0.243662 22.8155 -0.251996 2.45524 23.3845 -9.14064 2.03217e-16 0.0 3.88251e-19 7.62266 -49.1895 18.6634 0.268059 34.6495 0.0900953 1.07848 14.187 -4.15871
-39.63900000000001 85.8109 -2.892000000000003 -488.414 -82.5042 503.612 -0.632005 26.5833 2.29795 -4.60325 -3.4589 0.214619 3.64908 22.4553 0.831499 4.97084 -60.175 4.22669 -0.0 0.0 0.0 -0.0 0.0 0.0 -2.90499e-14 1.78347e-12 1.08403e-13 83.6319 26.4124 1.81733 -14.3743 -7.26053 26.3102 -0.00625211 2.25478 0.317054 -5.88348e-10 -4.09014e-10 -4.15919e-10 -1.02126e-09 -7.08826e-10 -7.15761e-10 -5.88344e-10 -4.09014e-10 -4.15924e-10 7.73091 5.47488 0.417314 -5.88348e-10 -4.09014e-10 -4.15922e-10 2.90554 0.965183 0.102902 -5.8834e-10 -4.09014e-10 -4.15921e-10 10.2786 0.731801 0.0259123 -5.88352e-10 -4.09013e-10 -4.15919e-10 2.22167 -0.733487 -0.20892 -2.8971e-14 1.78346e-12 1.08208e-13 -80.8962 15.498 7.58378 10.967 -4.74995 -19.6282 0.359307 -16.8015 2.43215 2.98385e-10 5.15431e-10 1.0729e-09 5.04375e-10 8.9464e-10 1.85623e-09 2.98383e-10 5.1543e-10 1.0729e-09 -7.73091 5.47488 -0.417314 2.98385e-10 5.15433e-10 1.07289e-09 -2.90554 0.965183 -0.102902 2.98378e-10 5.15429e-10 1.07289e-09 -10.2786 0.731801 -0.0259123 2.98393e-10 5.15433e-10 1.07288e-09 -2.22167 -0.733487 0.20892 -2.03217e-16 0.0 -3.88251e-19 4.92474 -9.00145 1.4152 -0.25627 23.8838 -0.265803 2.777 24.134 -9.7779 2.03217e-16 0.0 3.88251e-19 6.6541 -48.8067 18.1288 0.271126 34.8932 0.105219 1.04365 13.0621 -4.32577
-40.497000000000014 85.7865 -2.832799999999999 -489.25 -82.9176 504.614 -1.20399 26.5623 2.08849 -4.45896 -3.58028 0.125069 3.66597 22.4391 0.82529 5.12034 -60.0915 4.29691 -0.0 0.0 0.0 -0.0 0.0 0.0 -2.07234e-14 2.27932e-12 1.48741e-13 83.7116 26.2395 1.78653 -14.3258 -7.22033 26.2118 -0.00647664 2.29721 0.323027 -1.36395e-09 -4.03746e-10 5.41155e-10 -2.35878e-09 -7.01277e-10 9.42317e-10 -1.36394e-09 -4.03746e-10 5.41149e-10 7.73091 5.47488 0.417314 -1.36395e-09 -4.03746e-10 5.41152e-10 2.90554 0.965183 0.102902 -1.36394e-09 -4.03746e-10 5.41152e-10 10.2786 0.731801 0.0259123 -1.36395e-09 -4.03746e-10 5.41152e-10 2.22167 -0.733487 -0.20892 -2.06251e-14 2.27931e-12 1.48592e-13 -80.7463 15.816 7.25558 11.008 -4.77684 -19.7059 0.363493 -16.8973 2.44683 -3.6372e-10 7.19412e-10 -4.02808e-10 -6.25242e-10 1.24498e-09 -7.01774e-10 -3.63722e-10 7.19414e-10 -4.02805e-10 -7.73091 5.47488 -0.417314 -3.6372e-10 7.19414e-10 -4.02814e-10 -2.90554 0.965183 -0.102902 -3.63728e-10 7.19414e-10 -4.02817e-10 -10.2786 0.731801 -0.0259123 -3.63711e-10 7.19414e-10 -4.02827e-10 -2.22167 -0.733487 0.20892 -2.03217e-16 0.0 -3.88251e-19 4.41738 -9.56085 1.83323 -0.269106 25.0021 -0.273609 3.04124 24.9075 -10.1766 2.03217e-16 0.0 3.88251e-19 5.93711 -48.4907 17.82 0.275586 35.1957 0.117758 1.03456 12.0665 -4.63084
-41.32900000000001 85.7729 -2.7896 -489.698 -83.2872 505.256 -1.63471 26.503 1.87454 -4.35025 -3.66325 0.0443327 3.68045 22.4289 0.815823 5.26265 -60.0344 4.35589 -0.0 0.0 0.0 -0.0 0.0 0.0 -1.17149e-14 2.02234e-12 1.37107e-13 83.7536 26.1255 1.81537 -14.2782 -7.18116 26.1155 -0.00681262 2.35687 0.331425 -1.18473e-09 -3.24808e-10 1.80706e-10 -2.04985e-09 -5.64177e-10 3.17929e-10 -1.18473e-09 -3.24806e-10 1.80698e-10 7.73091 5.47488 0.417314 -1.18473e-09 -3.24807e-10 1.80703e-10 2.90554 0.965183 0.102902 -1.18472e-09 -3.24806e-10 1.807e-10 10.2786 0.731801 0.0259123 -1.18473e-09 -3.24806e-10 1.80706e-10 2.22167 -0.733487 -0.20892 -1.15808e-14 2.02231e-12 1.36984e-13 -80.5984 16.1622 6.90872 11.0747 -4.82061 -19.8327 0.370846 -17.0625 2.47222 -2.65474e-10 8.26478e-10 7.79717e-11 -4.61591e-10 1.4322e-09 1.31372e-10 -2.65477e-10 8.26479e-10 7.79735e-11 -7.73091 5.47488 -0.417314 -2.65474e-10 8.2648e-10 7.79669e-11 -2.90554 0.965183 -0.102902 -2.65483e-10 8.2648e-10 7.79647e-11 -10.2786 0.731801 -0.0259123 -2.65466e-10 8.2648e-10 7.79558e-11 -2.22167 -0.733487 0.20892 -2.03217e-16 0.0 -3.88251e-19 4.01462 -10.185 2.15137 -0.283668 26.1585 -0.276853 3.25378 25.8141 -10.329 2.03217e-16 0.0 3.88251e-19 5.53723 -48.2635 17.8137 0.282023 35.5812 0.12792 1.05696 11.1992 -5.14323
